<svg xmlns="http://www.w3.org/2000/svg" viewBox="0 0 512 512">
  <defs>
    <linearGradient id="grad1" x1="0%" y1="0%" x2="100%" y2="100%">
      <stop offset="0%" style="stop-color:#6366f1;stop-opacity:1" />
      <stop offset="100%" style="stop-color:#7c3aed;stop-opacity:1" />
    </linearGradient>
  </defs>
  <rect width="512" height="512" rx="112" fill="url(#grad1)"/>
  <!-- A simple music note path -->
  <path d="M382.49 98.74C374.82 95.14 366.19 96 359.39 100.86L201.2 213.84C195.42 217.97 192 224.62 192 231.76V371.18C176.71 361.35 156.49 355 133.51 355C86.71 355 48.77 387.21 48.77 426.96C48.77 466.71 86.71 498.91 133.51 498.91C180.3 498.91 218.24 466.71 218.24 426.96V249.27L357.76 149.61V317.06C342.47 307.23 322.25 300.88 299.27 300.88C252.47 300.88 214.53 333.09 214.53 372.84C214.53 412.59 252.47 444.79 299.27 444.79C346.06 444.79 384 412.59 384 372.84V115.18C384 108.62 380.03 102.59 382.49 98.74Z" fill="white" transform="translate(25, -20)"/>
</svg>